<?xml version="1.0" encoding="UTF-8" standalone="no" ?>
<!DOCTYPE svg PUBLIC "-//W3C//DTD SVG 1.1//EN" "http://www.w3.org/Graphics/SVG/1.1/DTD/svg11.dtd">
<svg xmlns="http://www.w3.org/2000/svg" xmlns:xlink="http://www.w3.org/1999/xlink" version="1.1" width="1080" height="1080" viewBox="0 0 1080 1080" xml:space="preserve">
<desc>Created with Fabric.js 5.2.4</desc>
<defs>
</defs>
<g transform="matrix(1 0 0 1 540 540)" id="7762953c-9b23-45a4-a411-d942b313aba5"  >
<rect style="stroke: none; stroke-width: 1; stroke-dasharray: none; stroke-linecap: butt; stroke-dashoffset: 0; stroke-linejoin: miter; stroke-miterlimit: 4; fill: rgb(255,255,255); fill-rule: nonzero; opacity: 1; visibility: hidden;" vector-effect="non-scaling-stroke"  x="-540" y="-540" rx="0" ry="0" width="1080" height="1080" />
</g>
<g transform="matrix(1 0 0 1 540 540)" id="49a2ed51-9122-496c-ba65-e14b43086326"  >
</g>
<g transform="matrix(70.86 0 0 71.18 540 540)"  >
<g style=""   >
		<g transform="matrix(0.67 0 0 0.67 0.39 0.07)"  >
<path style="stroke: none; stroke-width: 1; stroke-dasharray: none; stroke-linecap: butt; stroke-dashoffset: 0; stroke-linejoin: miter; stroke-miterlimit: 4; fill: rgb(0,0,0); fill-rule: nonzero; opacity: 1;" vector-effect="non-scaling-stroke"  transform=" translate(-12.58, -12.1)" d="M 16 9.3 C 15.8 9.200000000000001 15.8 9.100000000000001 15.9 8.9 C 16.1 8.6 16.3 8.200000000000001 16.4 7.9 C 17.9 4.9 18.5 2.5 18.7 1.7000000000000002 C 18.7 1.5000000000000002 18.599999999999998 1.4000000000000001 18.5 1.4000000000000001 L 16.9 1.1 C 16.799999999999997 1.1 16.599999999999998 1.2000000000000002 16.599999999999998 1.3 C 16.4 2 15.899999999999999 4.2 14.499999999999998 7 C 14.199999999999998 7.6 13.899999999999999 8.2 13.399999999999999 8.9 C 12.899999999999999 9.700000000000001 12.299999999999999 10.6 11.599999999999998 11.4 C 10.799999999999997 12.4 9.899999999999999 13.4 8.899999999999999 14.5 C 8.2 15.2 7.399999999999999 15.9 6.599999999999999 16.6 C 6 17 5.3 17.5 4.7 18 C 4.6000000000000005 18.1 4.5 18.3 4.6000000000000005 18.4 L 5.500000000000001 19.799999999999997 C 5.6000000000000005 19.9 5.800000000000001 19.999999999999996 5.900000000000001 19.9 C 6.300000000000002 19.599999999999998 6.700000000000001 19.4 7.100000000000001 19.099999999999998 C 7.200000000000001 18.999999999999996 7.300000000000002 19.099999999999998 7.300000000000002 19.2 C 8.400000000000002 21.4 10.700000000000001 23 13.3 23.099999999999998 C 17.2 23.2 20.4 20.2 20.6 16.4 C 20.7 13.1 18.8 10.3 16 9.3 z M 13.4 20.7 C 11.4 20.599999999999998 9.8 19.4 9.100000000000001 17.599999999999998 C 9.000000000000002 17.499999999999996 9.100000000000001 17.299999999999997 9.200000000000001 17.2 C 10.4 16.2 11.5 15 12.5 13.799999999999999 C 13.2 12.999999999999998 13.8 12.1 14.4 11.299999999999999 C 14.5 11.2 14.700000000000001 11.1 14.9 11.1 C 17 11.7 18.6 13.7 18.5 16 C 18.3 18.7 16 20.8 13.4 20.7 z" stroke-linecap="round" />
</g>
		<g transform="matrix(0.67 0 0 0.67 -4.4 0)"  >
<circle style="stroke: none; stroke-width: 1; stroke-dasharray: none; stroke-linecap: butt; stroke-dashoffset: 0; stroke-linejoin: miter; stroke-miterlimit: 4; fill: rgb(0,0,0); fill-rule: nonzero; opacity: 1;" vector-effect="non-scaling-stroke"  cx="0" cy="0" r="2" />
</g>
		<g transform="matrix(0.67 0 0 0.67 0.33 -2)"  >
<circle style="stroke: none; stroke-width: 1; stroke-dasharray: none; stroke-linecap: butt; stroke-dashoffset: 0; stroke-linejoin: miter; stroke-miterlimit: 4; fill: rgb(0,0,0); fill-rule: nonzero; opacity: 1;" vector-effect="non-scaling-stroke"  cx="0" cy="0" r="2" />
</g>
</g>
</g>
</svg>